<?xml version="1.0" standalone="no"?>
<!DOCTYPE svg PUBLIC "-//W3C//DTD SVG 20010904//EN"
 "http://www.w3.org/TR/2001/REC-SVG-20010904/DTD/svg10.dtd">
<svg version="1.0" xmlns="http://www.w3.org/2000/svg"
 width="1902.000000pt" height="698.000000pt" viewBox="0 0 1902.000000 698.000000"
 preserveAspectRatio="xMidYMid meet">

<g transform="translate(0.000000,698.000000) scale(0.100000,-0.100000)"
fill="#000000" stroke="none">
<path d="M0 3495 l0 -3485 9510 0 9510 0 0 3485 0 3485 -9510 0 -9510 0 0
-3485z m9610 2230 c174 -50 349 -180 406 -300 25 -52 31 -85 15 -85 -5 0 -12
-15 -15 -34 -4 -19 -13 -39 -21 -46 -8 -7 -15 -20 -15 -30 0 -9 -10 -41 -22
-70 -17 -42 -19 -56 -10 -71 7 -10 12 -27 12 -36 0 -10 7 -31 15 -47 9 -16 13
-31 10 -34 -3 -3 -42 1 -87 10 -60 11 -90 13 -111 5 -33 -11 -178 -3 -253 13
-38 9 -50 8 -61 -3 -11 -10 -25 -12 -56 -6 -32 6 -49 4 -72 -9 -25 -14 -45
-16 -120 -10 -100 8 -116 6 -162 -26 -38 -25 -42 -41 -11 -49 18 -5 19 -8 9
-21 -9 -10 -22 -14 -36 -10 -18 4 -26 0 -36 -17 -11 -21 -8 -26 23 -54 19 -16
43 -44 53 -62 16 -27 17 -36 7 -58 -11 -23 -17 -26 -42 -20 -20 4 -30 3 -30
-5 0 -7 -8 -9 -20 -5 -16 5 -20 2 -20 -15 0 -13 -8 -24 -20 -27 -16 -4 -20
-14 -20 -46 0 -24 7 -48 17 -59 13 -15 17 -42 19 -131 3 -126 -11 -128 -28 -5
-13 95 -23 117 -57 129 -45 16 -99 146 -120 287 -6 40 -10 87 -10 105 l2 32
10 -37 c6 -21 13 -38 16 -38 3 0 13 13 23 29 15 28 15 31 -1 45 -10 9 -25 16
-34 16 -22 0 -22 18 0 42 21 24 30 23 69 -7 32 -24 64 -33 64 -17 0 4 -5 25
-11 47 -6 22 -11 101 -12 175 -1 129 1 138 26 185 88 162 254 308 411 363 89
30 214 33 306 7z m587 -740 c3 -12 -81 -105 -96 -105 -5 0 -15 9 -21 21 -10
17 -6 26 29 60 39 39 79 50 88 24z m-139 -14 c3 -8 -1 -12 -9 -9 -7 2 -15 10
-17 17 -3 8 1 12 9 9 7 -2 15 -10 17 -17z m-756 -36 c12 -26 -2 -75 -21 -75
-10 0 -24 77 -16 91 11 16 25 10 37 -16z m446 -36 c-4 -33 -38 -39 -38 -7 0
28 20 52 33 39 5 -5 7 -19 5 -32z m327 -61 c9 -22 -8 -23 -29 -2 -19 18 -19
24 -4 61 l11 28 7 -35 c4 -19 11 -43 15 -52z m-560 42 c19 16 23 12 31 -28 6
-32 6 -32 -34 -32 -34 0 -41 3 -46 25 -9 33 1 50 20 34 11 -9 18 -9 29 1z
m691 -116 c5 -40 1 -65 -16 -113 -25 -69 -31 -75 -60 -66 -26 8 -25 29 1 66
22 32 42 139 32 177 -6 24 -5 24 15 6 14 -12 23 -35 28 -70z m-1015 43 c-1
-12 -15 -9 -19 4 -3 6 1 10 8 8 6 -3 11 -8 11 -12z m857 -35 c4 -36 -18 -91
-43 -112 -14 -11 -20 -9 -42 12 l-25 25 27 49 c15 27 29 53 32 57 3 5 15 7 26
5 17 -2 23 -11 25 -36z m-489 2 c12 -15 21 -33 21 -40 0 -7 13 -27 29 -44 17
-20 27 -39 24 -50 -3 -11 5 -30 21 -47 51 -55 41 -58 -164 -56 -192 2 -200 4
-165 43 7 8 24 34 37 56 13 23 41 69 63 103 37 56 43 61 77 61 28 0 42 -6 57
-26z m405 11 c-4 -8 -10 -15 -15 -15 -5 0 -9 7 -9 15 0 8 7 15 15 15 9 0 12
-6 9 -15z m-664 -182 c0 -5 -13 -21 -28 -38 -19 -20 -38 -31 -61 -32 -25 -2
-31 1 -24 8 7 7 9 17 7 23 -2 6 15 19 38 28 50 18 68 21 68 11z m512 -20 c22
-20 23 -33 3 -33 -8 0 -15 -4 -15 -10 0 -19 -30 -10 -60 20 -16 16 -30 32 -30
35 0 13 85 4 102 -12z m33 -84 c10 -15 -1 -23 -20 -15 -9 3 -13 10 -10 16 8
13 22 13 30 -1z m-507 -39 c22 -22 48 -40 58 -40 11 0 33 -9 49 -20 35 -23 63
-25 91 -6 11 8 38 19 60 25 23 6 57 27 78 47 l37 36 43 -21 c23 -12 52 -31 64
-44 l21 -22 -22 -40 c-17 -31 -29 -41 -52 -43 -17 -1 -40 -8 -52 -14 -19 -9
-34 -6 -85 15 -71 30 -81 32 -107 15 -15 -9 -28 -9 -61 2 -40 13 -44 12 -105
-18 -62 -30 -64 -31 -97 -15 -18 9 -39 25 -46 35 -17 23 -32 15 -32 -17 0 -34
-10 -55 -26 -55 -18 0 -18 47 1 80 8 14 14 33 15 42 0 31 76 92 121 97 4 1 25
-17 47 -39z m-338 -120 c0 -5 -4 -10 -10 -10 -5 0 -10 5 -10 10 0 6 5 10 10
10 6 0 10 -4 10 -10z m616 -96 c34 -15 37 -18 19 -25 -24 -9 -220 -11 -252 -3
-13 4 -23 9 -23 13 0 31 191 42 256 15z m-16 -214 c58 -30 52 -44 -16 -36 -31
3 -65 11 -75 17 -14 7 -30 6 -55 -3 -35 -13 -63 -5 -71 19 -5 15 19 20 105 22
55 1 82 -4 112 -19z m-868 -257 c-4 -134 -7 -150 -33 -158 -16 -5 -20 -13 -16
-31 2 -14 1 -27 -4 -30 -14 -8 -29 33 -23 64 7 35 -29 112 -52 112 -12 0 -15
-6 -10 -23 6 -24 -17 -67 -35 -67 -5 0 -9 9 -9 19 0 26 -15 34 -40 21 -17 -9
-22 -7 -29 11 -10 30 -25 7 -15 -24 5 -12 8 -26 9 -32 0 -5 17 -11 37 -13 44
-4 50 -17 46 -99 -2 -35 -7 -53 -16 -53 -8 0 -10 -8 -7 -23 5 -17 -3 -31 -29
-56 -19 -18 -39 -31 -44 -27 -5 3 -12 -4 -15 -15 -4 -14 -11 -20 -21 -16 -8 3
-17 -1 -20 -9 -8 -21 -26 -17 -26 6 0 26 -11 25 -33 -1 -17 -20 -17 -22 -1
-33 16 -12 15 -15 -6 -44 -30 -41 -50 -41 -50 -2 0 20 -5 30 -15 30 -8 0 -15
-8 -15 -19 0 -10 -7 -24 -15 -31 -8 -7 -15 -22 -15 -33 0 -11 -12 -30 -26 -43
-14 -13 -23 -28 -20 -33 3 -5 -1 -15 -10 -22 -14 -12 -20 -8 -46 24 -17 20
-34 34 -39 31 -5 -3 -9 17 -9 44 0 35 -4 52 -15 56 -8 3 -15 17 -15 30 0 15
-8 30 -20 36 -11 6 -20 17 -20 25 0 8 -4 15 -10 15 -16 0 -12 -46 5 -60 17
-14 21 -60 5 -60 -5 0 -10 6 -10 14 0 19 -20 32 -29 19 -3 -5 -13 -12 -22 -15
-9 -4 -21 -30 -29 -64 -21 -94 -32 -98 -26 -10 5 60 2 86 -10 112 -18 38 -31
43 -41 17 -3 -10 -15 -31 -26 -47 -16 -23 -17 -30 -6 -37 10 -6 11 -11 2 -20
-17 -17 -33 -2 -33 30 0 29 -21 57 -33 44 -4 -3 -7 -15 -7 -25 0 -15 -5 -18
-20 -13 -15 5 -20 2 -20 -14 0 -11 4 -22 9 -25 5 -4 5 -22 0 -43 -5 -21 -9
-54 -9 -73 0 -26 -3 -31 -12 -22 -8 8 -11 39 -10 86 2 55 -1 78 -13 89 -8 9
-15 20 -15 26 0 19 -19 12 -31 -11 -11 -21 -12 -20 -31 18 -10 21 -17 48 -16
58 4 25 82 64 348 172 113 45 266 108 340 139 194 80 455 209 475 235 0 0 -1
-48 -3 -107z m1504 -59 c-4 -9 -9 -15 -11 -12 -3 3 -3 13 1 22 4 9 9 15 11 12
3 -3 3 -13 -1 -22z m263 -3 c8 -14 7 -22 -4 -31 -11 -9 -16 -7 -25 10 -11 21
-6 40 10 40 5 0 14 -9 19 -19z m-122 -63 c-3 -8 -6 -5 -6 6 -1 11 2 17 5 13 3
-3 4 -12 1 -19z m350 -79 c29 -21 57 -49 64 -60 7 -13 17 -19 29 -16 10 2 25
-4 35 -15 11 -14 24 -18 41 -14 19 5 24 3 24 -14 0 -12 13 -28 31 -39 17 -11
25 -21 18 -23 -6 -2 -10 -11 -7 -18 3 -10 10 -4 22 19 l18 33 22 -21 c14 -14
30 -19 46 -15 25 5 25 5 5 -11 -15 -13 -17 -18 -6 -22 7 -3 28 -18 45 -34 29
-26 30 -29 14 -45 -17 -18 -38 -12 -38 12 0 8 -5 14 -12 14 -7 0 -22 12 -34
28 -12 15 -26 24 -30 19 -4 -4 -2 -13 4 -19 17 -17 15 -48 -2 -48 -8 0 -16
-10 -18 -22 -2 -16 -11 -24 -29 -26 -23 -3 -27 1 -33 32 -6 33 -22 54 -32 43
-3 -2 1 -17 8 -32 11 -24 10 -29 -7 -41 -10 -8 -25 -14 -32 -14 -16 0 -18 46
-2 56 16 10 -5 27 -49 39 -27 8 -38 17 -40 33 -4 27 -22 29 -22 2 0 -17 -6
-19 -50 -17 -48 2 -50 3 -50 32 -1 37 -15 57 -62 82 -30 16 -34 22 -26 37 7
12 7 21 -1 29 -6 6 -11 20 -11 30 0 17 2 17 16 6 13 -11 15 -9 12 17 -3 25 0
29 20 27 23 -3 31 20 12 32 -5 3 -10 13 -10 21 0 12 8 9 33 -11 17 -14 55 -44
84 -66z m-203 64 c32 -15 56 -43 38 -43 -20 0 -92 42 -87 50 8 13 8 13 49 -7z
m-1704 -76 c0 -15 77 -58 93 -51 8 3 12 -7 12 -26 0 -36 0 -36 -32 -10 -14 11
-33 20 -41 20 -26 0 -52 31 -52 62 0 17 4 27 10 23 6 -3 10 -12 10 -18z m1585
14 c3 -5 1 -12 -5 -16 -7 -4 -6 -13 1 -27 12 -22 -1 -45 -20 -34 -7 5 -9 66
-2 84 3 6 20 1 26 -7z m117 -23 c-15 -15 -26 -4 -18 18 5 13 9 15 18 6 9 -9 9
-15 0 -24z m-1742 -14 c0 -8 -4 -14 -10 -14 -5 0 -10 9 -10 21 0 11 5 17 10
14 6 -3 10 -13 10 -21z m-150 -49 c-12 -26 -22 -57 -22 -68 -2 -27 -17 -49
-29 -42 -9 6 -5 20 35 109 14 33 29 57 32 54 3 -4 -4 -27 -16 -53z m330 -55
c0 -5 -4 -10 -9 -10 -6 0 -13 5 -16 10 -3 6 1 10 9 10 9 0 16 -4 16 -10z
m1670 -59 c0 -10 -7 -24 -15 -31 -16 -13 -18 -8 -9 28 8 27 24 29 24 3z
m-3065 -119 c15 -46 24 -86 22 -89 -3 -2 -20 16 -39 41 -18 25 -39 45 -45 46
-7 0 -13 8 -13 18 0 10 -5 23 -11 29 -7 7 -2 20 17 43 32 38 27 45 69 -88z
m3575 108 c0 -5 -4 -10 -10 -10 -5 0 -10 5 -10 10 0 6 5 10 10 10 6 0 10 -4
10 -10z m360 -23 c0 -7 -7 -22 -15 -33 -14 -18 -14 -18 -15 7 0 14 3 29 7 32
11 11 23 8 23 -6z m-2940 -22 c0 -10 -30 -65 -35 -65 -5 0 4 49 12 63 5 8 23
10 23 2z m2685 -9 c46 -2 65 -11 65 -32 0 -16 -16 -19 -25 -4 -3 5 -19 7 -34
4 -16 -4 -32 -1 -35 5 -4 6 -15 11 -25 11 -10 0 -25 7 -32 17 -13 15 -11 16
16 9 17 -4 48 -9 70 -10z m-535 -3 c0 -5 -5 -15 -10 -23 -8 -12 -10 -11 -10 8
0 12 5 22 10 22 6 0 10 -3 10 -7z m-99 -26 c-13 -13 -26 -3 -16 12 3 6 11 8
17 5 6 -4 6 -10 -1 -17z m122 -43 c-17 -13 -17 -15 0 -28 18 -14 24 -46 8 -46
-5 0 -12 8 -16 18 -6 16 -7 16 -18 1 -7 -9 -25 -16 -40 -16 -30 0 -36 14 -10
24 24 9 72 65 73 84 0 28 15 32 18 4 2 -17 -3 -32 -15 -41z m102 -1 c-3 -12
-1 -33 4 -47 8 -19 6 -30 -10 -49 -24 -32 -24 -37 1 -37 11 0 20 -4 20 -10 0
-5 -11 -10 -23 -10 -19 0 -26 8 -34 38 -16 54 -14 95 3 88 17 -6 17 -1 3 26
-7 13 -7 18 -1 14 6 -3 13 -2 16 3 4 5 2 12 -4 16 -6 4 -7 11 -4 17 11 17 36
-24 29 -49z m-3373 20 c13 -34 27 -123 18 -123 -3 0 -18 25 -33 55 -21 44 -25
60 -17 75 14 26 18 25 32 -7z m3206 15 c-6 -18 -28 -21 -28 -4 0 9 7 16 16 16
9 0 14 -5 12 -12z m752 -18 c14 -35 8 -60 -16 -60 -12 0 -15 6 -11 21 3 12 2
32 -3 45 -14 37 15 31 30 -6z m-346 1 c3 -5 0 -13 -7 -19 -15 -13 -42 1 -33
17 9 13 33 15 40 2z m-2454 -11 c0 -5 -4 -10 -10 -10 -5 0 -10 5 -10 10 0 6 5
10 10 10 6 0 10 -4 10 -10z m2740 -6 c0 -14 -3 -14 -15 -4 -8 7 -15 14 -15 16
0 2 7 4 15 4 8 0 15 -7 15 -16z m-2850 -28 c0 -8 -4 -18 -10 -21 -5 -3 -10 3
-10 14 0 12 5 21 10 21 6 0 10 -6 10 -14z m2530 -11 c0 -8 -9 -15 -20 -15 -12
0 -17 -5 -14 -14 6 -16 -36 -30 -50 -16 -14 14 33 60 61 60 14 0 23 -6 23 -15z
m-2426 -3 c7 -12 -5 -52 -15 -52 -5 0 -9 14 -9 30 0 28 13 40 24 22z m2284 -9
c-5 -25 -28 -28 -28 -4 0 12 6 21 16 21 9 0 14 -7 12 -17z m173 -36 c-8 -8
-11 -7 -11 4 0 20 13 34 18 19 3 -7 -1 -17 -7 -23z m-3443 -49 c7 -17 8 -28 2
-28 -6 0 -10 6 -10 14 0 7 -7 19 -15 26 -8 7 -15 20 -15 28 0 14 2 14 13 2 7
-8 19 -27 25 -42z m3100 24 c2 -7 -2 -10 -12 -6 -9 3 -16 11 -16 16 0 13 23 5
28 -10z m-2001 -14 c-3 -8 -6 -5 -6 6 -1 11 2 17 5 13 3 -3 4 -12 1 -19z
m1963 -8 c0 -22 -8 -25 -30 -10 -13 9 -13 11 0 20 22 15 30 12 30 -10z m80
-21 c0 -21 -7 -23 -29 -10 -12 8 -12 12 -2 25 16 19 31 12 31 -15z m166 4
c-10 -10 -19 5 -10 18 6 11 8 11 12 0 2 -7 1 -15 -2 -18z m-41 7 c3 -5 1 -10
-4 -10 -6 0 -11 5 -11 10 0 6 2 10 4 10 3 0 8 -4 11 -10z m-2765 -15 c0 -8 -4
-15 -10 -15 -5 0 -10 7 -10 15 0 8 5 15 10 15 6 0 10 -7 10 -15z m1080 -21 c0
-13 -4 -24 -9 -24 -11 0 -22 40 -15 52 9 15 24 -2 24 -28z m-464 -99 c5 -38 4
-39 -10 -21 -11 14 -16 39 -15 80 1 60 1 60 10 21 5 -22 12 -58 15 -80z m-566
85 c0 -5 -5 -10 -11 -10 -5 0 -7 5 -4 10 3 6 8 10 11 10 2 0 4 -4 4 -10z
m2475 -10 c-3 -5 -10 -10 -16 -10 -5 0 -9 5 -9 10 0 6 7 10 16 10 8 0 12 -4 9
-10z m175 -35 c0 -8 -4 -15 -10 -15 -5 0 -10 7 -10 15 0 8 5 15 10 15 6 0 10
-7 10 -15z m-135 -27 c0 -9 4 -20 8 -24 13 -13 7 -24 -13 -24 -23 0 -39 26
-32 52 6 23 37 20 37 -4z m-3225 -17 c-11 -22 -29 -35 -36 -28 -9 8 20 47 34
47 9 0 10 -5 2 -19z m1124 -14 c13 -20 5 -30 -18 -21 -9 3 -16 15 -16 26 0 22
18 20 34 -5z m2026 -7 c0 -5 -4 -10 -10 -10 -5 0 -10 5 -10 10 0 6 5 10 10 10
6 0 10 -4 10 -10z m153 -20 c-6 -24 -23 -37 -23 -18 0 12 18 38 26 38 1 0 0
-9 -3 -20z m-3353 -25 c-7 -9 -15 -13 -17 -11 -7 7 7 26 19 26 6 0 6 -6 -2
-15z m1340 -5 c0 -11 -4 -20 -10 -20 -5 0 -10 9 -10 20 0 11 5 20 10 20 6 0
10 -9 10 -20z m138 -49 c3 -8 -1 -12 -9 -9 -7 2 -15 10 -17 17 -3 8 1 12 9 9
7 -2 15 -10 17 -17z m-118 -37 c0 -21 -4 -33 -10 -29 -17 10 -11 65 7 65 2 0
3 -16 3 -36z m1868 15 c15 -24 10 -34 -13 -26 -15 6 -22 47 -7 47 4 0 13 -9
20 -21z m43 -2 c-13 -13 -26 -3 -16 12 3 6 11 8 17 5 6 -4 6 -10 -1 -17z
m-2161 -83 c0 -8 -5 -12 -10 -9 -6 4 -8 11 -5 16 9 14 15 11 15 -7z m430 -26
c0 -21 -3 -29 -10 -22 -5 5 -7 19 -4 32 9 31 14 27 14 -10z m1580 -28 c0 -5
-4 -10 -10 -10 -5 0 -10 5 -10 10 0 6 5 10 10 10 6 0 10 -4 10 -10z m-1990
-10 c0 -5 -2 -10 -4 -10 -3 0 -8 5 -11 10 -3 6 -1 10 4 10 6 0 11 -4 11 -10z
m402 -60 l-4 -42 -18 26 c-22 34 -16 80 9 67 13 -7 16 -20 13 -51z m-86 23
c-10 -10 -19 5 -10 18 6 11 8 11 12 0 2 -7 1 -15 -2 -18z m131 -17 c-3 -8 0
-20 8 -26 10 -8 11 -18 2 -45 -12 -41 -2 -58 19 -31 7 11 16 17 20 14 8 -8
-24 -68 -36 -68 -6 0 -10 -15 -10 -34 0 -21 -6 -36 -15 -40 -8 -3 -15 -1 -15
4 0 5 -9 12 -21 15 -11 4 -25 19 -32 33 -6 15 -14 29 -18 32 -3 3 -8 26 -11
53 -6 51 6 61 37 31 11 -12 13 -20 6 -27 -15 -15 -14 -47 2 -47 8 0 22 18 32
41 16 34 17 44 6 62 -12 18 -11 22 5 34 23 17 27 16 21 -1z m1505 -21 c-8 -28
-32 -48 -32 -25 0 11 33 60 37 56 1 -1 -1 -15 -5 -31z m-1622 0 c-7 -9 -15
-13 -17 -11 -7 7 7 26 19 26 6 0 6 -6 -2 -15z m1086 -177 c-9 -12 -16 -30 -16
-40 0 -9 -5 -20 -11 -24 -9 -5 -10 7 -5 45 10 76 15 86 33 61 12 -17 12 -23
-1 -42z m-2716 -17 c-5 -11 -15 -23 -22 -27 -7 -5 -8 -2 -3 7 21 37 44 55 25
20z m1756 -56 c16 -12 17 -16 5 -24 -11 -7 -19 -5 -28 7 -24 33 -11 43 23 17z
m39 -76 c9 -29 -4 -38 -21 -15 -18 25 -18 36 0 36 8 0 18 -9 21 -21z m-50 -69
c3 -5 1 -10 -4 -10 -6 0 -11 5 -11 10 0 6 2 10 4 10 3 0 8 -4 11 -10z m-1652
-734 c26 -8 47 -10 47 -5 0 15 91 10 195 -12 130 -27 253 -85 299 -143 57 -70
83 -141 70 -192 -6 -21 -12 -24 -57 -24 -54 0 -57 -8 -6 -19 41 -8 58 -34 42
-61 -7 -10 -10 -26 -7 -35 4 -9 2 -26 -3 -38 -6 -12 -16 -35 -22 -51 -7 -17
-15 -26 -19 -20 -4 5 -29 17 -57 27 -54 18 -213 23 -250 7 -13 -5 22 -9 97 -9
64 -1 128 -5 142 -11 37 -14 52 -51 36 -90 -13 -32 -20 -36 -36 -20 -6 6 -21
6 -39 1 l-30 -8 28 -12 c33 -13 44 -36 27 -56 -7 -8 -8 -20 -3 -27 4 -7 8 -23
8 -36 1 -16 -5 -22 -22 -22 -26 0 -27 -3 -13 -30 7 -13 6 -21 -5 -30 -12 -10
-20 -1 -47 59 -24 51 -38 71 -52 71 -13 0 -16 -5 -11 -17 26 -66 11 -108 -37
-101 -16 2 -24 11 -26 28 -4 35 -24 71 -36 67 -6 -2 -14 -21 -17 -43 l-5 -39
-12 29 c-19 44 -26 23 -11 -34 15 -58 5 -75 -41 -65 -14 3 -41 7 -60 10 l-35
5 35 -11 c52 -16 66 -33 52 -64 -6 -13 -9 -31 -6 -39 3 -8 -3 -19 -15 -26 -12
-6 -21 -17 -21 -25 0 -13 -10 -16 -47 -15 -5 0 -8 11 -8 24 0 28 -43 76 -69
76 -17 0 -17 -1 -2 -26 10 -14 16 -39 14 -57 -3 -27 -7 -32 -33 -35 -24 -3
-28 -1 -17 9 20 21 14 28 -25 31 l-38 4 33 13 c43 17 41 27 -7 29 -26 1 -41
-3 -45 -13 -7 -19 -36 -20 -36 -1 0 27 -20 28 -31 2 -9 -18 -9 -29 -1 -39 8
-10 0 -22 -34 -52 -24 -22 -44 -44 -44 -50 0 -6 -16 -17 -35 -24 -19 -7 -41
-23 -48 -36 -17 -33 -76 -75 -105 -75 -34 0 -97 38 -113 68 -13 23 -11 27 39
73 28 26 67 53 85 60 19 7 38 23 45 38 17 39 71 101 106 122 17 10 25 19 19
19 -18 0 -16 22 7 99 23 78 57 111 115 111 19 0 35 5 35 11 0 7 -16 10 -42 7
-24 -2 -57 2 -75 9 -37 15 -202 18 -187 4 5 -5 38 -11 74 -12 36 -1 68 -4 73
-6 13 -8 -54 -92 -69 -86 -8 3 -14 -1 -14 -10 0 -8 -6 -17 -14 -20 -8 -3 -17
-20 -21 -37 -5 -24 -10 -29 -20 -20 -19 16 -26 -2 -15 -39 5 -17 5 -29 0 -26
-5 3 -12 0 -15 -5 -11 -17 -56 -33 -100 -34 -38 -1 -40 -2 -39 -33 1 -30 -2
-34 -35 -43 -23 -6 -55 -30 -89 -65 -48 -50 -57 -55 -96 -55 -52 0 -66 14 -73
71 -8 58 16 100 73 127 53 26 75 27 138 6 26 -9 50 -14 53 -10 7 7 -41 26 -66
26 -9 0 -26 6 -36 14 -24 18 -14 30 54 71 30 17 54 39 57 52 9 34 111 123 140
123 25 0 32 18 13 37 -16 16 -4 53 26 86 21 22 35 27 73 28 26 1 58 4 71 8 25
7 20 9 -77 37 -8 2 -12 12 -10 21 3 15 13 18 58 15 l55 -2 -41 17 c-46 20 -74
41 -74 54 0 5 11 2 25 -7 13 -9 30 -14 37 -12 7 3 -1 12 -19 22 -32 16 -44 36
-23 36 6 0 33 -11 60 -25 32 -16 64 -25 92 -24 l43 2 -50 7 c-62 9 -85 18 -85
36 0 11 13 13 58 10 56 -5 56 -5 12 4 -25 5 -67 12 -93 16 -26 4 -50 10 -52
14 -8 13 71 20 102 10 16 -6 40 -8 53 -6 14 2 31 5 38 5 6 1 12 6 12 12 0 5
-8 9 -17 8 -10 -2 -34 2 -53 9 -19 6 -47 11 -62 9 -39 -3 -35 15 7 37 34 18
75 68 75 91 0 6 -14 -5 -31 -23 l-30 -34 7 36 c3 20 4 36 0 36 -11 0 -36 -59
-30 -73 10 -26 -16 -29 -35 -5 -23 27 -41 16 -22 -13 10 -18 10 -23 -6 -35
-23 -17 -32 -17 -66 -1 -20 9 -27 19 -27 40 0 16 -4 26 -10 22 -5 -3 -10 -17
-10 -30 0 -31 -35 -52 -56 -34 -12 10 -16 9 -21 -9 -6 -23 -33 -31 -33 -9 0 6
-11 25 -24 42 -23 29 -23 29 -30 7 -8 -25 -18 -27 -48 -11 -15 8 -22 8 -28 -1
-5 -7 -15 -10 -24 -7 -9 4 -19 0 -24 -9 -6 -10 -24 -16 -48 -17 -21 0 -45 -4
-51 -10 -7 -5 -20 -6 -30 -3 -9 4 -20 1 -24 -6 -4 -7 -20 -13 -36 -13 -15 0
-27 -6 -26 -12 1 -7 -15 -11 -42 -10 -44 1 -50 5 -45 37 8 62 156 128 399 179
75 16 147 33 161 39 14 5 30 10 35 11 6 1 19 11 31 21 13 13 51 25 105 35 46
8 109 23 139 34 66 23 168 27 233 7z m4540 -11 c42 -14 110 -30 150 -36 40 -6
81 -19 92 -28 30 -27 89 -47 210 -71 253 -49 415 -124 415 -191 0 -28 -2 -29
-45 -29 -25 0 -45 4 -45 9 0 13 -39 21 -46 9 -4 -6 -9 -6 -13 -1 -10 15 -65
37 -96 39 -64 5 -98 17 -102 35 -6 23 -19 25 -27 4 -8 -22 -47 -19 -53 5 -3
11 -8 20 -12 20 -13 0 -31 -24 -31 -40 0 -9 -6 -25 -14 -36 -14 -18 -15 -18
-25 9 -9 24 -13 26 -30 16 -30 -19 -51 -4 -51 36 0 19 -4 35 -10 35 -5 0 -10
-16 -10 -35 l0 -36 -47 5 c-27 2 -56 7 -65 11 -14 5 -18 2 -18 -13 0 -16 -7
-20 -42 -20 -58 0 -118 -12 -118 -23 0 -19 58 -23 125 -9 6 1 27 2 48 1 63 -2
33 -17 -60 -30 -119 -17 -130 -21 -50 -17 68 4 77 0 55 -22 -17 -17 3 -14 26
3 11 8 26 15 34 15 24 0 7 -24 -34 -47 -28 -16 -33 -23 -19 -23 11 0 35 9 53
20 17 11 32 16 32 11 0 -13 -32 -38 -70 -55 l-35 -16 50 3 c45 2 50 0 53 -20
3 -19 -1 -23 -25 -23 -32 -1 -70 -25 -54 -35 6 -3 31 -5 55 -4 52 3 67 -7 103
-68 19 -33 23 -47 14 -56 -17 -17 -14 -24 13 -31 30 -7 113 -87 126 -120 5
-14 26 -34 47 -45 41 -21 83 -57 83 -71 0 -5 -24 -14 -52 -20 -54 -11 -86 -25
-78 -34 3 -2 33 5 68 16 55 18 68 19 104 8 60 -18 108 -68 108 -114 0 -21 -7
-50 -15 -66 -13 -26 -21 -30 -57 -30 -47 0 -105 32 -118 65 -5 13 -30 32 -59
46 -28 13 -51 29 -51 34 0 6 -14 23 -31 39 -21 21 -33 26 -41 18 -8 -8 -18 -6
-37 6 -34 22 -42 33 -39 57 3 27 -10 45 -27 38 -10 -3 -15 1 -15 15 0 11 -7
25 -15 32 -8 7 -15 19 -15 27 0 8 -5 11 -11 8 -16 -11 -85 75 -72 89 4 3 37 6
75 6 39 0 68 4 68 10 0 11 -116 12 -164 1 -42 -9 -57 -37 -30 -59 23 -19 29
-32 50 -111 11 -39 11 -57 3 -67 -8 -10 -3 -16 20 -29 30 -15 111 -112 111
-133 0 -6 10 -14 23 -17 30 -10 124 -81 137 -105 8 -15 5 -24 -15 -46 -29 -32
-69 -54 -97 -54 -23 0 -98 41 -98 54 0 18 -52 65 -65 59 -8 -2 -19 5 -25 17
-6 12 -29 37 -50 56 -34 31 -38 38 -27 55 9 15 8 22 -6 36 -17 17 -18 17 -23
-5 -8 -27 -17 -28 -40 -4 -18 18 -94 27 -94 11 0 -5 14 -12 30 -16 45 -9 45
-20 0 -28 -34 -6 -39 -9 -29 -21 9 -11 7 -14 -9 -14 -11 0 -24 6 -29 12 -12
17 -9 56 6 71 6 6 11 17 11 24 0 18 -29 16 -36 -2 -3 -8 -15 -17 -26 -21 -15
-4 -18 -12 -14 -30 8 -32 -1 -49 -19 -34 -8 7 -18 9 -24 6 -5 -4 -12 3 -16 14
-3 11 -12 19 -18 17 -7 -1 -12 9 -12 24 0 14 -6 33 -14 43 -12 14 -11 19 4 36
16 17 31 20 116 19 54 0 103 2 109 6 24 15 9 53 -35 89 -25 21 -45 46 -45 56
0 10 -5 22 -10 25 -8 5 -7 11 1 21 8 10 38 14 116 14 59 0 102 4 99 9 -8 13
-163 12 -214 -1 -34 -8 -42 -14 -37 -27 21 -52 43 -157 34 -166 -5 -5 -29 -8
-53 -6 -25 1 -54 -3 -66 -9 -12 -6 -33 -9 -47 -5 -23 5 -25 9 -19 43 3 20 9
47 12 60 4 12 2 22 -4 22 -5 0 -13 -10 -17 -22 -7 -22 -8 -21 -12 7 -5 28 -18
44 -36 45 -5 0 -5 -5 -2 -10 4 -6 2 -16 -3 -23 -5 -7 -12 -24 -16 -39 -7 -29
-36 -37 -65 -19 -14 9 -12 58 4 94 5 13 2 17 -12 17 -13 0 -28 -19 -51 -65
-17 -36 -36 -65 -41 -65 -15 0 -23 18 -11 25 5 3 10 13 10 21 0 11 -6 13 -20
9 -15 -5 -20 -2 -20 13 0 11 -6 23 -12 25 -10 4 -10 8 -1 14 6 4 11 24 10 43
-2 27 3 37 21 45 12 5 22 13 22 16 0 13 -52 20 -65 9 -10 -9 -16 -7 -24 9 -30
55 2 100 79 110 46 6 51 8 31 15 -32 11 -141 -23 -141 -43 0 -11 -3 -12 -11
-4 -11 11 -28 70 -33 113 -2 14 -6 40 -10 57 -7 32 -7 33 35 39 39 7 41 8 18
16 -13 5 -34 7 -46 5 -63 -12 -19 168 59 240 37 34 177 99 243 112 33 7 79 17
102 22 57 12 136 12 128 -1 -3 -5 -5 -10 -3 -10 2 1 26 7 53 15 76 21 150 18
238 -10z m-4315 -930 c-3 -3 -9 2 -12 12 -6 14 -5 15 5 6 7 -7 10 -15 7 -18z
m1513 -141 c1 -14 -35 -22 -53 -12 -10 5 -18 12 -18 17 0 11 70 6 71 -5z"/>
<path d="M8815 4841 c-4 -22 -3 -65 0 -96 6 -44 11 -55 23 -53 22 4 42 45 42
87 0 20 7 39 17 47 10 7 15 16 10 20 -4 4 -12 3 -19 -4 -8 -8 -16 -5 -30 14
-27 33 -35 30 -43 -15z"/>
<path d="M8845 4559 c-10 -15 1 -23 20 -15 9 3 13 10 10 16 -8 13 -22 13 -30
-1z"/>
<path d="M8643 3755 c-3 -9 2 -24 11 -34 9 -10 16 -28 16 -40 0 -31 22 -22 31
13 7 23 4 29 -12 33 -14 4 -18 11 -14 24 8 24 -23 27 -32 4z"/>
<path d="M8478 3602 c-14 -2 -32 -10 -39 -18 -10 -12 -9 -19 8 -35 16 -17 24
-18 49 -9 27 11 44 26 44 42 0 13 -34 24 -62 20z"/>
<path d="M8380 3574 c0 -8 5 -12 10 -9 6 3 10 10 10 16 0 5 -4 9 -10 9 -5 0
-10 -7 -10 -16z"/>
<path d="M8421 3506 c-8 -9 -8 -16 -2 -20 6 -4 15 3 21 14 12 23 -2 27 -19 6z"/>
<path d="M8242 3347 c-9 -11 -10 -17 -2 -22 15 -9 23 -1 18 21 -3 15 -4 16
-16 1z"/>
<path d="M8195 3275 c3 -8 7 -23 10 -32 4 -11 9 -13 16 -6 8 8 8 17 0 32 -13
24 -33 29 -26 6z"/>
<path d="M8140 3169 c0 -5 5 -7 10 -4 6 3 10 8 10 11 0 2 -4 4 -10 4 -5 0 -10
-5 -10 -11z"/>
<path d="M10626 3561 c-3 -5 1 -14 9 -21 8 -7 15 -19 15 -26 0 -23 26 -16 44
11 16 24 16 25 -8 25 -14 0 -28 5 -31 10 -8 12 -22 13 -29 1z"/>
<path d="M10590 3513 c1 -5 12 -21 25 -38 21 -25 25 -27 31 -12 4 11 -1 25
-11 37 -18 20 -45 27 -45 13z"/>
<path d="M10785 3440 c3 -5 8 -10 11 -10 2 0 4 5 4 10 0 6 -5 10 -11 10 -5 0
-7 -4 -4 -10z"/>
<path d="M10750 3401 c0 -6 5 -13 10 -16 6 -3 10 1 10 9 0 9 -4 16 -10 16 -5
0 -10 -4 -10 -9z"/>
<path d="M10946 3319 c17 -33 30 -33 20 -1 -4 11 -13 23 -21 26 -13 5 -13 1 1
-25z"/>
<path d="M7440 1246 c0 -8 -11 -28 -25 -44 -22 -27 -24 -42 -4 -42 10 0 29 33
39 71 5 17 5 29 -1 29 -5 0 -9 -6 -9 -14z"/>
<path d="M7360 1150 c0 -5 5 -10 10 -10 6 0 10 5 10 10 0 6 -4 10 -10 10 -5 0
-10 -4 -10 -10z"/>
<path d="M7394 1069 c-60 -27 -154 -151 -154 -203 0 -53 37 -86 100 -86 41 0
53 6 114 56 113 93 155 185 106 234 -26 26 -109 26 -166 -1z m-7 -215 c7 -20
-11 -38 -32 -30 -13 4 -14 10 -5 26 13 24 28 26 37 4z"/>
<path d="M7230 984 c-25 -12 -66 -26 -92 -29 -27 -4 -48 -11 -48 -16 0 -12 47
-11 55 1 3 6 15 10 26 10 24 0 105 36 114 50 9 14 -3 11 -55 -16z"/>
<path d="M7430 734 c34 -7 110 -9 110 -2 0 5 -28 7 -62 7 -35 -1 -56 -3 -48
-5z"/>
<path d="M7197 724 c-15 -15 7 -24 62 -24 31 0 62 -5 68 -11 15 -15 -18 -75
-63 -112 -21 -18 -34 -37 -34 -52 0 -20 6 -24 50 -30 56 -8 80 0 55 19 -15 11
-15 18 5 94 11 46 18 87 15 92 -3 5 -27 12 -53 15 -26 3 -58 8 -72 11 -14 3
-29 2 -33 -2z"/>
<path d="M7600 650 c0 -5 4 -10 9 -10 6 0 13 5 16 10 3 6 -1 10 -9 10 -9 0
-16 -4 -16 -10z"/>
<path d="M7111 481 c-9 -6 -1 -11 24 -15 33 -7 56 -2 44 8 -11 9 -56 14 -68 7z"/>
<path d="M6916 321 c-3 -5 9 -11 27 -14 17 -3 41 -8 52 -12 11 -3 4 3 -15 14
-39 22 -56 26 -64 12z"/>
<path d="M11947 1273 c-7 -11 19 -53 34 -53 14 0 11 16 -9 41 -11 12 -21 18
-25 12z"/>
<path d="M11542 1223 c12 -45 31 -68 48 -58 8 5 5 13 -9 26 -11 11 -24 31 -27
44 -3 14 -10 25 -14 25 -5 0 -4 -17 2 -37z"/>
<path d="M11920 1226 c0 -16 24 -38 33 -30 8 9 -11 44 -23 44 -6 0 -10 -6 -10
-14z"/>
<path d="M11602 1149 c2 -6 8 -10 13 -10 5 0 11 4 13 10 2 6 -4 11 -13 11 -9
0 -15 -5 -13 -11z"/>
<path d="M11640 1119 c0 -13 62 -39 115 -50 43 -8 75 3 75 27 0 22 -28 29 -48
11 -21 -20 -102 -12 -102 9 0 8 -9 14 -20 14 -11 0 -20 -5 -20 -11z"/>
<path d="M11620 1025 c0 -3 15 -26 33 -52 60 -89 72 -111 65 -119 -8 -7 -57
16 -102 48 -64 46 -105 33 -76 -23 11 -20 79 -59 105 -59 8 0 15 -4 15 -10 0
-5 -9 -10 -20 -10 -30 0 -24 -19 8 -27 44 -11 66 -6 90 22 43 51 25 111 -57
188 -47 44 -61 54 -61 42z"/>
<path d="M11856 1010 c11 -4 36 -5 55 0 31 7 29 8 -21 8 -39 1 -49 -2 -34 -8z"/>
<path d="M11714 991 c8 -12 71 -41 88 -40 7 0 -9 11 -36 25 -55 27 -60 28 -52
15z"/>
<path d="M11835 940 c3 -5 17 -10 30 -10 13 0 27 5 30 10 4 6 -8 10 -30 10
-22 0 -34 -4 -30 -10z"/>
<path d="M11310 890 c-13 -8 -12 -10 3 -10 9 0 17 5 17 10 0 12 -1 12 -20 0z"/>
<path d="M11478 733 c12 -2 30 -2 40 0 9 3 -1 5 -23 4 -22 0 -30 -2 -17 -4z"/>
<path d="M11355 650 c3 -5 10 -10 16 -10 5 0 9 5 9 10 0 6 -7 10 -16 10 -8 0
-12 -4 -9 -10z"/>
<path d="M11810 471 c0 -17 14 -18 40 -5 l25 14 -32 0 c-18 0 -33 -4 -33 -9z"/>
<path d="M12003 310 c-13 -5 -23 -12 -23 -16 0 -3 10 -3 23 1 12 4 38 10 57
15 l35 8 -35 0 c-19 1 -45 -3 -57 -8z"/>
</g>
</svg>
